<svg version="1.1" class="nav__icon" id="menu-icon" xmlns="http://www.w3.org/2000/svg" xmlns:xlink="http://www.w3.org/1999/xlink" x="0px" y="0px" viewBox="0 0 32 32" style="enable-background:new 0 0 32 32;" xml:space="preserve">
          <path class="st0" d="M9.6,8c0-0.9,0.7-1.6,1.6-1.6h16c0.9,0,1.6,0.7,1.6,1.6s-0.7,1.6-1.6,1.6h-16C10.3,9.6,9.6,8.9,9.6,8z M28.8,16
           	c0,0.9-0.7,1.6-1.6,1.6H4.8c-0.9,0-1.6-0.7-1.6-1.6s0.7-1.6,1.6-1.6h22.4C28.1,14.4,28.8,15.1,28.8,16z M4.8,22.4h16
          	c0.9,0,1.6,0.7,1.6,1.6s-0.7,1.6-1.6,1.6h-16c-0.9,0-1.6-0.7-1.6-1.6S3.9,22.4,4.8,22.4z"/>
        </svg>